# xmcd
#
# Track frame offsets: 
#        150
#        13184
#        24643
#        38939
#        52897
#        66198
#        80710
#        94103
#        107724
#        122771
#        138746
#        152241
#
# Disc length: 2214 seconds
#
# Revision: 0
# Processed by: cddbd v1.5.2PL0 Copyright (c) Steve Scherf et al.
# Submitted via: ExactAudioCopy v0.99pb5
#
DISCID=a408a40c
DTITLE=Rocky Lawrence - The Songs Of Robert Johnson
DYEAR=2009
DGENRE=Blues
TTITLE0=Love In Vain Blues
TTITLE1=Milcow's Calf Blues
TTITLE2=Come On In My Kitchen
TTITLE3=32-20 Blues
TTITLE4=Crossroads Blues
TTITLE5=Me And The Devil Blues
TTITLE6=Kind Hearted Women Blues
TTITLE7=Phonograph Blues
TTITLE8=Sweet Home Chicago
TTITLE9=Terraplane Blues
TTITLE10=Ramblin' On my Mind
TTITLE11=I'm A Steady Rollin' Man
EXTD=
EXTT0=
EXTT1=
EXTT2=
EXTT3=
EXTT4=
EXTT5=
EXTT6=
EXTT7=
EXTT8=
EXTT9=
EXTT10=
EXTT11=
PLAYORDER=
